Coordinates
version=1
nRows=5
nColumns=107
inDegrees=yes

Units are S.I. units (second, meters, Newtons, ...)
If the header above contains a line with 'inDegrees', this indicates whether rotational values are in degrees (yes) or radians (no).

endheader
time	sternoclavicular_r2	sternoclavicular_r3	unrotscap_r3	unrotscap_r2	acromioclavicular_r2	acromioclavicular_r3	acromioclavicular_r1	unrothum_r1	unrothum_r3	unrothum_r2	elv_angle	shoulder_elv	shoulder1_r2	shoulder_rot	elbow_flexion	pro_sup	deviation	flexion	proximal_distal_r1	proximal_distal_r3	cmc_flexion	cmc_abduction	mp_flexion	ip_flexion	mcp2_flexion	mcp2_abduction	pm2_flexion	md2_flexion	mcp3_flexion	mcp3_abduction	pm3_flexion	md3_flexion	mcp4_flexion	mcp4_abduction	pm4_flexion	md4_flexion	mcp5_flexion	mcp5_abduction	pm5_flexion	md5_flexion	bicpt_tx	bicpt_ty	bicpt_tz	bicpt2_tx	bicpt2_ty	bicpt2_tz	ptpt_tx	ptpt_ty	ptpt_tz	FCUpt_tx	FCUpt_ty	FCUpt_tz	EDCpt_tx	EDCpt_ty	EDCpt_tz	APLpt_tx	APLpt_ty	APLpt_tz	FPLpt_tx	FPLpt_ty	FPLpt_tz	FPLpt2_tx	FPLpt2_ty	FPLpt2_tz	PEC1pt2_tx	PEC1pt2_ty	PEC1pt2_tz	PEC1pt3_tx	PEC1pt3_ty	PEC1pt3_tz	PEC2pt2_tx	PEC2pt2_ty	PEC2pt2_tz	PEC2pt3_tx	PEC2pt3_ty	PEC2pt3_tz	PEC3pt2_tx	PEC3pt2_ty	PEC3pt2_tz	PEC3pt3_tx	PEC3pt3_ty	PEC3pt3_tz	DELT2pt2a_tx	DELT2pt2a_ty	DELT2pt2a_tz	DELT2pt2_tx	DELT2pt2_ty	DELT2pt2_tz	LAT1pt2_tx	LAT1pt2_ty	LAT1pt2_tz	LAT1pt3_tx	LAT1pt3_ty	LAT1pt3_tz	LAT2pt2_tx	LAT2pt2_ty	LAT2pt2_tz	LAT2pt3_tx	LAT2pt3_ty	LAT2pt3_tz	LAT3pt2_tx	LAT3pt2_ty	LAT3pt2_tz	LAT3pt3_tx	LAT3pt3_ty	LAT3pt3_tz
      1.53333333	     -0.32302092	      0.13681641	     -0.13681641	      0.32302092	     -0.06540516	      0.52858153	      0.23759376	     -0.23759376	     -0.52858153	      0.06540516	     99.16469704	     76.47807302	     -1.73075047	    -24.37585850	     30.86688099	     65.98622606	      0.24749061	     -0.07958494	      0.28574479	     -0.03979247	     32.50846502	     -5.46092359	     -1.25521163	     11.96494727	     -9.15688972	     11.42268349	     12.03716142	    -12.68729537	     -7.09329815	      0.46877293	      7.77795633	     11.06493454	    -11.09506176	     -4.45772276	     -3.38777364	     19.18464437	    -19.95085260	    -14.10522488	     -0.58863959	      5.02553909	      0.00092098	     -0.03113782	     -0.00486985	      0.01585051	     -0.01858514	     -0.00422255	      0.00267436	     -0.06805267	     -0.00536554	      0.01050071	     -0.18285861	     -0.00031662	     -0.00791833	      0.00254154	     -0.00022313	      0.00007612	      0.00003045	      0.00015224	      0.00009744	      0.00029231	      0.00016442	     -0.00001133	     -0.00022560	     -0.00027072	      0.00250678	      0.00879499	      0.00611825	     -0.00820016	      0.01979934	     -0.01877963	      0.00250678	      0.00879499	      0.00611825	      0.00055234	      0.01835475	     -0.00964474	      0.00395970	      0.00489078	      0.01599632	      0.00000000	      0.00782255	      0.00000000	     -0.00718045	     -0.03318301	     -0.00645029	      0.01617330	     -0.00056999	     -0.00496339	     -0.00089224	      0.01495572	     -0.00611825	      0.00246430	      0.02158383	     -0.01784490	     -0.00599079	      0.01295880	     -0.00548093	     -0.01249143	      0.02736218	     -0.03063374	     -0.02345330	      0.01448836	     -0.00735040	     -0.01555055	      0.03161096	     -0.03828156
      1.56666667	     -0.32443228	      0.13741420	     -0.13741420	      0.32443228	     -0.06569094	      0.53089105	      0.23863187	     -0.23863187	     -0.53089105	      0.06569094	     98.83598444	     76.81222690	     -1.72501335	    -22.89439591	     30.95615862	     64.64013251	      0.26025641	     -0.02710760	      0.29776474	     -0.01355380	     31.72448106	     -4.83840959	     -0.78679251	     12.61319864	    -10.30051290	     11.12514124	     12.67937817	    -18.26685308	     -8.79585987	      0.33030664	      7.67240286	     10.46981770	    -11.70642438	     -4.46232511	     -6.51206171	     18.89645174	    -20.90700360	    -14.08900880	     -2.69460440	      5.08135734	      0.00092393	     -0.03114805	     -0.00487150	      0.01592596	     -0.01860939	     -0.00441403	      0.00277382	     -0.06798835	     -0.00525711	      0.01035467	     -0.18289629	     -0.00033272	     -0.00775680	      0.00247627	     -0.00019499	      0.00002712	      0.00001085	      0.00005425	      0.00003472	      0.00010415	      0.00005859	     -0.00001060	     -0.00023398	     -0.00028078	      0.00251774	      0.00883341	      0.00614498	     -0.00823598	      0.01988585	     -0.01886168	      0.00251774	      0.00883341	      0.00614498	      0.00055476	      0.01843495	     -0.00968688	      0.00397229	      0.00491215	      0.01602686	      0.00000000	      0.00789154	      0.00000000	     -0.00721182	     -0.03332800	     -0.00650756	      0.01539049	     -0.00052245	     -0.00436761	     -0.00089614	      0.01502107	     -0.00614498	      0.00247506	      0.02167814	     -0.01792287	     -0.00601696	      0.01301542	     -0.00550488	     -0.01254601	      0.02748173	     -0.03076759	     -0.02355577	      0.01455166	     -0.00738251	     -0.01561850	      0.03174908	     -0.03844882
      1.60000000	     -0.32434668	      0.13737794	     -0.13737794	      0.32434668	     -0.06567360	      0.53075097	      0.23856891	     -0.23856891	     -0.53075097	      0.06567360	     98.84571414	     76.79195915	     -1.72518316	    -22.89790459	     30.90293383	     64.77364381	      0.26247355	     -0.02904652	      0.29982470	     -0.01452326	     31.82324653	     -4.32732126	     -0.68833442	     12.63864622	    -10.67841842	     11.18033246	     12.53583507	    -18.32948900	     -9.06004678	      0.17521116	      7.56016175	     10.44484623	    -11.74193634	     -4.54588680	     -6.53590994	     18.88427135	    -20.88496323	    -14.11656489	     -2.72088835	      5.06854411	      0.00092217	     -0.03114195	     -0.00487052	      0.01591866	     -0.01859493	     -0.00439515	      0.00276396	     -0.06799473	     -0.00526786	      0.01036913	     -0.18289258	     -0.00033119	     -0.00777282	      0.00248272	     -0.00019774	      0.00002901	      0.00001160	      0.00005802	      0.00003714	      0.00011141	      0.00006267	     -0.00001070	     -0.00023296	     -0.00027955	      0.00251707	      0.00883108	      0.00614336	     -0.00823381	      0.01988060	     -0.01885671	      0.00251707	      0.00883108	      0.00614336	      0.00055461	      0.01843009	     -0.00968433	      0.00397153	      0.00491085	      0.01602501	      0.00000000	      0.00788735	      0.00000000	     -0.00720992	     -0.03331921	     -0.00650408	      0.01539234	     -0.00052257	     -0.00436902	     -0.00089591	      0.01501711	     -0.00614336	      0.00247441	      0.02167242	     -0.01791814	     -0.00601538	      0.01301198	     -0.00550343	     -0.01254270	      0.02747448	     -0.03075947	     -0.02354955	      0.01454782	     -0.00738057	     -0.01561438	      0.03174070	     -0.03843867
      1.63333333	     -0.32202994	      0.13639668	     -0.13639668	      0.32202994	     -0.06520451	      0.52695994	      0.23686487	     -0.23686487	     -0.52695994	      0.06520451	     99.39542119	     76.24345152	     -1.73477736	    -25.63359984	     30.96385390	     66.54143752	      0.23132170	     -0.06601389	      0.27013842	     -0.03300695	     30.87102850	     -3.48990437	      1.72027201	     10.96829831	    -11.47171434	     11.29655438	     12.97145606	    -20.93794933	     -9.78254223	      0.21929271	      7.04263771	     11.12867690	    -12.71978757	     -4.51691026	     -6.86488445	     20.72591150	    -21.99952728	    -14.12871417	     -1.60460179	      4.98439292	      0.00092419	     -0.03114893	     -0.00487164	      0.01581820	     -0.01861148	     -0.00414284	      0.00263334	     -0.06807919	     -0.00541027	      0.01056111	     -0.18284293	     -0.00030958	     -0.00798495	      0.00256863	     -0.00023501	      0.00006390	      0.00002556	      0.00012780	      0.00008179	      0.00024538	      0.00013802	     -0.00000966	     -0.00024232	     -0.00029079	      0.00249909	      0.00876800	      0.00609948	     -0.00817500	      0.01973860	     -0.01872202	      0.00249909	      0.00876800	      0.00609948	      0.00055065	      0.01829844	     -0.00961515	      0.00395083	      0.00487578	      0.01597471	      0.00000000	      0.00777429	      0.00000000	     -0.00715842	     -0.03308121	     -0.00641023	      0.01681491	     -0.00061094	     -0.00549366	     -0.00088951	      0.01490984	     -0.00609948	      0.00245674	      0.02151761	     -0.01779015	     -0.00597241	      0.01291904	     -0.00546412	     -0.01245311	      0.02727824	     -0.03053976	     -0.02338134	      0.01444391	     -0.00732785	     -0.01550285	      0.03151399	     -0.03816412
      1.66666667	     -0.32188581	      0.13633564	     -0.13633564	      0.32188581	     -0.06517533	      0.52672408	      0.23675885	     -0.23675885	     -0.52672408	      0.06517533	     99.44005110	     76.20932657	     -1.73555630	    -25.81542327	     30.95416083	     66.61846418	      0.23054492	     -0.06146730	      0.26937762	     -0.03073365	     30.90412574	     -2.63929174	      1.58639616	     11.21376300	    -12.21335212	     11.40520682	     12.81546358	    -20.98390235	    -10.55812224	      0.28585262	      7.07479382	     10.94341079	    -13.19226330	     -4.49805986	     -7.22771424	     20.40706835	    -22.17186326	    -14.13789480	     -2.18384439	      4.97352837	      0.00092387	     -0.03114782	     -0.00487146	      0.01581365	     -0.01860885	     -0.00413174	      0.00262765	     -0.06808287	     -0.00541647	      0.01056949	     -0.18284074	     -0.00030858	     -0.00799420	      0.00257240	     -0.00023668	      0.00005973	      0.00002389	      0.00011945	      0.00007645	      0.00022935	      0.00012901	     -0.00000970	     -0.00024201	     -0.00029041	      0.00249797	      0.00876408	      0.00609675	     -0.00817134	      0.01972976	     -0.01871364	      0.00249797	      0.00876408	      0.00609675	      0.00055040	      0.01829025	     -0.00961085	      0.00394954	      0.00487359	      0.01597156	      0.00000000	      0.00776728	      0.00000000	     -0.00715522	     -0.03306641	     -0.00640441	      0.01690589	     -0.00061691	     -0.00557215	     -0.00088911	      0.01490317	     -0.00609675	      0.00245564	      0.02150798	     -0.01778219	     -0.00596974	      0.01291326	     -0.00546167	     -0.01244753	      0.02726603	     -0.03052609	     -0.02337088	      0.01443745	     -0.00732457	     -0.01549591	      0.03149988	     -0.03814703
